# xmcd
#
# Track frame offsets:
#	150
#	20216
#	35227
#	50693
#	66895
#	83491
#	96430
#	115107
#	146613
#	162387
#	186153
#	202962
#	227161
#
# Disc length: 3407 seconds
#
# Revision: 0
# Processed by: cddbd v1.5.2PL0 Copyright (c) Steve Scherf et al.
# Submitted via: EZCDAudioConverter 2.1.3.1
#
DISCID=ba0d4d0d
DTITLE=Pelandruska
DYEAR=1900
DGENRE=
TTITLE0=Scotshne
TTITLE1=Menisc a l'escala
TTITLE2=L'altra haca la trac
TTITLE3=Regaettwin
TTITLE4=Margarida
TTITLE5=Cònmlidic
TTITLE6=Bacanal 9
TTITLE7=L'himen d'Alcoi
TTITLE8=(H)a mor(t)
TTITLE9=Space Invaders
TTITLE10=La gitana d'Alcassares
TTITLE11=La botija de Tesla
TTITLE12=Aravésivoràs
EXTD=
EXTT0=
EXTT1=
EXTT2=
EXTT3=
EXTT4=
EXTT5=
EXTT6=
EXTT7=
EXTT8=
EXTT9=
EXTT10=
EXTT11=
EXTT12=
PLAYORDER=
